<mxfile host="app.diagrams.net" modified="2021-04-19T11:59:39.748Z" agent="5.0 (Macintosh; Intel Mac OS X 11_2_3) AppleWebKit/537.36 (KHTML, like Gecko) Chrome/89.0.4389.82 Safari/537.36" etag="r8Mb1dDIt0g4Vl_xy7Tf" version="14.6.1" type="github">
  <diagram id="C5RBs43oDa-KdzZeNtuy" name="Page-1">
    <mxGraphModel dx="1761" dy="945" grid="1" gridSize="10" guides="1" tooltips="1" connect="1" arrows="1" fold="1" page="1" pageScale="1" pageWidth="827" pageHeight="1169" math="0" shadow="0">
      <root>
        <mxCell id="WIyWlLk6GJQsqaUBKTNV-0" />
        <mxCell id="WIyWlLk6GJQsqaUBKTNV-1" parent="WIyWlLk6GJQsqaUBKTNV-0" />
        <mxCell id="2IMz6kc5Xn535oeAkMrh-334" value="" style="group" vertex="1" connectable="0" parent="WIyWlLk6GJQsqaUBKTNV-1">
          <mxGeometry x="20" y="60" width="790" height="720" as="geometry" />
        </mxCell>
        <mxCell id="2IMz6kc5Xn535oeAkMrh-335" value="" style="line;strokeWidth=2;html=1;rotation=-45;" vertex="1" parent="2IMz6kc5Xn535oeAkMrh-334">
          <mxGeometry x="386.5388785046729" y="434.12651162790695" width="14.766355140186915" as="geometry" />
        </mxCell>
        <mxCell id="2IMz6kc5Xn535oeAkMrh-336" value="users" style="shape=table;startSize=50;container=1;collapsible=1;childLayout=tableLayout;fixedRows=1;rowLines=0;fontStyle=1;align=center;resizeLast=1;" vertex="1" parent="2IMz6kc5Xn535oeAkMrh-334">
          <mxGeometry x="140.28037383177568" y="234.4186046511628" width="103.3644859813084" height="390" as="geometry">
            <mxRectangle x="240" y="320" width="60" height="50" as="alternateBounds" />
          </mxGeometry>
        </mxCell>
        <mxCell id="2IMz6kc5Xn535oeAkMrh-337" value="" style="shape=partialRectangle;collapsible=0;dropTarget=0;pointerEvents=0;fillColor=none;points=[[0,0.5],[1,0.5]];portConstraint=eastwest;top=0;left=0;right=0;bottom=1;" vertex="1" parent="2IMz6kc5Xn535oeAkMrh-336">
          <mxGeometry y="50" width="103.3644859813084" height="50" as="geometry" />
        </mxCell>
        <mxCell id="2IMz6kc5Xn535oeAkMrh-338" value="PK" style="shape=partialRectangle;overflow=hidden;connectable=0;fillColor=none;top=0;left=0;bottom=0;right=0;fontStyle=1;" vertex="1" parent="2IMz6kc5Xn535oeAkMrh-337">
          <mxGeometry width="30" height="50" as="geometry" />
        </mxCell>
        <mxCell id="2IMz6kc5Xn535oeAkMrh-339" value="id " style="shape=partialRectangle;overflow=hidden;connectable=0;fillColor=none;top=0;left=0;bottom=0;right=0;align=left;spacingLeft=6;fontStyle=5;" vertex="1" parent="2IMz6kc5Xn535oeAkMrh-337">
          <mxGeometry x="30" width="73.3644859813084" height="50" as="geometry" />
        </mxCell>
        <mxCell id="2IMz6kc5Xn535oeAkMrh-340" value="" style="shape=partialRectangle;collapsible=0;dropTarget=0;pointerEvents=0;fillColor=none;points=[[0,0.5],[1,0.5]];portConstraint=eastwest;top=0;left=0;right=0;bottom=0;" vertex="1" parent="2IMz6kc5Xn535oeAkMrh-336">
          <mxGeometry y="100" width="103.3644859813084" height="30" as="geometry" />
        </mxCell>
        <mxCell id="2IMz6kc5Xn535oeAkMrh-341" value="" style="shape=partialRectangle;overflow=hidden;connectable=0;fillColor=none;top=0;left=0;bottom=0;right=0;" vertex="1" parent="2IMz6kc5Xn535oeAkMrh-340">
          <mxGeometry width="30" height="30" as="geometry" />
        </mxCell>
        <mxCell id="2IMz6kc5Xn535oeAkMrh-342" value="name" style="shape=partialRectangle;overflow=hidden;connectable=0;fillColor=none;top=0;left=0;bottom=0;right=0;align=left;spacingLeft=6;" vertex="1" parent="2IMz6kc5Xn535oeAkMrh-340">
          <mxGeometry x="30" width="73.3644859813084" height="30" as="geometry" />
        </mxCell>
        <mxCell id="2IMz6kc5Xn535oeAkMrh-343" value="" style="shape=partialRectangle;collapsible=0;dropTarget=0;pointerEvents=0;fillColor=none;points=[[0,0.5],[1,0.5]];portConstraint=eastwest;top=0;left=0;right=0;bottom=0;" vertex="1" parent="2IMz6kc5Xn535oeAkMrh-336">
          <mxGeometry y="130" width="103.3644859813084" height="30" as="geometry" />
        </mxCell>
        <mxCell id="2IMz6kc5Xn535oeAkMrh-344" value="" style="shape=partialRectangle;overflow=hidden;connectable=0;fillColor=none;top=0;left=0;bottom=0;right=0;" vertex="1" parent="2IMz6kc5Xn535oeAkMrh-343">
          <mxGeometry width="30" height="30" as="geometry" />
        </mxCell>
        <mxCell id="2IMz6kc5Xn535oeAkMrh-345" value="screen_name" style="shape=partialRectangle;overflow=hidden;connectable=0;fillColor=none;top=0;left=0;bottom=0;right=0;align=left;spacingLeft=6;" vertex="1" parent="2IMz6kc5Xn535oeAkMrh-343">
          <mxGeometry x="30" width="73.3644859813084" height="30" as="geometry" />
        </mxCell>
        <mxCell id="2IMz6kc5Xn535oeAkMrh-346" value="" style="shape=partialRectangle;collapsible=0;dropTarget=0;pointerEvents=0;fillColor=none;points=[[0,0.5],[1,0.5]];portConstraint=eastwest;top=0;left=0;right=0;bottom=0;" vertex="1" parent="2IMz6kc5Xn535oeAkMrh-336">
          <mxGeometry y="160" width="103.3644859813084" height="30" as="geometry" />
        </mxCell>
        <mxCell id="2IMz6kc5Xn535oeAkMrh-347" value="" style="shape=partialRectangle;overflow=hidden;connectable=0;fillColor=none;top=0;left=0;bottom=0;right=0;" vertex="1" parent="2IMz6kc5Xn535oeAkMrh-346">
          <mxGeometry width="30" height="30" as="geometry" />
        </mxCell>
        <mxCell id="2IMz6kc5Xn535oeAkMrh-348" value="email" style="shape=partialRectangle;overflow=hidden;connectable=0;fillColor=none;top=0;left=0;bottom=0;right=0;align=left;spacingLeft=6;" vertex="1" parent="2IMz6kc5Xn535oeAkMrh-346">
          <mxGeometry x="30" width="73.3644859813084" height="30" as="geometry" />
        </mxCell>
        <mxCell id="2IMz6kc5Xn535oeAkMrh-349" value="" style="shape=partialRectangle;collapsible=0;dropTarget=0;pointerEvents=0;fillColor=none;points=[[0,0.5],[1,0.5]];portConstraint=eastwest;top=0;left=0;right=0;bottom=0;" vertex="1" parent="2IMz6kc5Xn535oeAkMrh-336">
          <mxGeometry y="190" width="103.3644859813084" height="30" as="geometry" />
        </mxCell>
        <mxCell id="2IMz6kc5Xn535oeAkMrh-350" value="" style="shape=partialRectangle;overflow=hidden;connectable=0;fillColor=none;top=0;left=0;bottom=0;right=0;" vertex="1" parent="2IMz6kc5Xn535oeAkMrh-349">
          <mxGeometry width="30" height="30" as="geometry" />
        </mxCell>
        <mxCell id="2IMz6kc5Xn535oeAkMrh-351" value="email_verified_at" style="shape=partialRectangle;overflow=hidden;connectable=0;fillColor=none;top=0;left=0;bottom=0;right=0;align=left;spacingLeft=6;" vertex="1" parent="2IMz6kc5Xn535oeAkMrh-349">
          <mxGeometry x="30" width="73.3644859813084" height="30" as="geometry" />
        </mxCell>
        <mxCell id="2IMz6kc5Xn535oeAkMrh-352" value="" style="shape=partialRectangle;collapsible=0;dropTarget=0;pointerEvents=0;fillColor=none;points=[[0,0.5],[1,0.5]];portConstraint=eastwest;top=0;left=0;right=0;bottom=0;" vertex="1" parent="2IMz6kc5Xn535oeAkMrh-336">
          <mxGeometry y="220" width="103.3644859813084" height="30" as="geometry" />
        </mxCell>
        <mxCell id="2IMz6kc5Xn535oeAkMrh-353" value="" style="shape=partialRectangle;overflow=hidden;connectable=0;fillColor=none;top=0;left=0;bottom=0;right=0;" vertex="1" parent="2IMz6kc5Xn535oeAkMrh-352">
          <mxGeometry width="30" height="30" as="geometry" />
        </mxCell>
        <mxCell id="2IMz6kc5Xn535oeAkMrh-354" value="password" style="shape=partialRectangle;overflow=hidden;connectable=0;fillColor=none;top=0;left=0;bottom=0;right=0;align=left;spacingLeft=6;" vertex="1" parent="2IMz6kc5Xn535oeAkMrh-352">
          <mxGeometry x="30" width="73.3644859813084" height="30" as="geometry" />
        </mxCell>
        <mxCell id="2IMz6kc5Xn535oeAkMrh-355" value="" style="shape=partialRectangle;collapsible=0;dropTarget=0;pointerEvents=0;fillColor=none;points=[[0,0.5],[1,0.5]];portConstraint=eastwest;top=0;left=0;right=0;bottom=0;" vertex="1" parent="2IMz6kc5Xn535oeAkMrh-336">
          <mxGeometry y="250" width="103.3644859813084" height="30" as="geometry" />
        </mxCell>
        <mxCell id="2IMz6kc5Xn535oeAkMrh-356" value="" style="shape=partialRectangle;overflow=hidden;connectable=0;fillColor=none;top=0;left=0;bottom=0;right=0;" vertex="1" parent="2IMz6kc5Xn535oeAkMrh-355">
          <mxGeometry width="30" height="30" as="geometry" />
        </mxCell>
        <mxCell id="2IMz6kc5Xn535oeAkMrh-357" value="profile_image" style="shape=partialRectangle;overflow=hidden;connectable=0;fillColor=none;top=0;left=0;bottom=0;right=0;align=left;spacingLeft=6;" vertex="1" parent="2IMz6kc5Xn535oeAkMrh-355">
          <mxGeometry x="30" width="73.3644859813084" height="30" as="geometry" />
        </mxCell>
        <mxCell id="2IMz6kc5Xn535oeAkMrh-358" value="" style="shape=partialRectangle;collapsible=0;dropTarget=0;pointerEvents=0;fillColor=none;points=[[0,0.5],[1,0.5]];portConstraint=eastwest;top=0;left=0;right=0;bottom=0;" vertex="1" parent="2IMz6kc5Xn535oeAkMrh-336">
          <mxGeometry y="280" width="103.3644859813084" height="30" as="geometry" />
        </mxCell>
        <mxCell id="2IMz6kc5Xn535oeAkMrh-359" value="" style="shape=partialRectangle;overflow=hidden;connectable=0;fillColor=none;top=0;left=0;bottom=0;right=0;" vertex="1" parent="2IMz6kc5Xn535oeAkMrh-358">
          <mxGeometry width="30" height="30" as="geometry" />
        </mxCell>
        <mxCell id="2IMz6kc5Xn535oeAkMrh-360" value="profile_text" style="shape=partialRectangle;overflow=hidden;connectable=0;fillColor=none;top=0;left=0;bottom=0;right=0;align=left;spacingLeft=6;" vertex="1" parent="2IMz6kc5Xn535oeAkMrh-358">
          <mxGeometry x="30" width="73.3644859813084" height="30" as="geometry" />
        </mxCell>
        <mxCell id="2IMz6kc5Xn535oeAkMrh-361" value="" style="shape=partialRectangle;collapsible=0;dropTarget=0;pointerEvents=0;fillColor=none;points=[[0,0.5],[1,0.5]];portConstraint=eastwest;top=0;left=0;right=0;bottom=0;" vertex="1" parent="2IMz6kc5Xn535oeAkMrh-336">
          <mxGeometry y="310" width="103.3644859813084" height="30" as="geometry" />
        </mxCell>
        <mxCell id="2IMz6kc5Xn535oeAkMrh-362" value="" style="shape=partialRectangle;overflow=hidden;connectable=0;fillColor=none;top=0;left=0;bottom=0;right=0;" vertex="1" parent="2IMz6kc5Xn535oeAkMrh-361">
          <mxGeometry width="30" height="30" as="geometry" />
        </mxCell>
        <mxCell id="2IMz6kc5Xn535oeAkMrh-363" value="rememberToken" style="shape=partialRectangle;overflow=hidden;connectable=0;fillColor=none;top=0;left=0;bottom=0;right=0;align=left;spacingLeft=6;" vertex="1" parent="2IMz6kc5Xn535oeAkMrh-361">
          <mxGeometry x="30" width="73.3644859813084" height="30" as="geometry" />
        </mxCell>
        <mxCell id="2IMz6kc5Xn535oeAkMrh-364" value="" style="shape=partialRectangle;collapsible=0;dropTarget=0;pointerEvents=0;fillColor=none;points=[[0,0.5],[1,0.5]];portConstraint=eastwest;top=0;left=0;right=0;bottom=0;" vertex="1" parent="2IMz6kc5Xn535oeAkMrh-336">
          <mxGeometry y="340" width="103.3644859813084" height="30" as="geometry" />
        </mxCell>
        <mxCell id="2IMz6kc5Xn535oeAkMrh-365" value="" style="shape=partialRectangle;overflow=hidden;connectable=0;fillColor=none;top=0;left=0;bottom=0;right=0;" vertex="1" parent="2IMz6kc5Xn535oeAkMrh-364">
          <mxGeometry width="30" height="30" as="geometry" />
        </mxCell>
        <mxCell id="2IMz6kc5Xn535oeAkMrh-366" value="created_at" style="shape=partialRectangle;overflow=hidden;connectable=0;fillColor=none;top=0;left=0;bottom=0;right=0;align=left;spacingLeft=6;" vertex="1" parent="2IMz6kc5Xn535oeAkMrh-364">
          <mxGeometry x="30" width="73.3644859813084" height="30" as="geometry" />
        </mxCell>
        <mxCell id="2IMz6kc5Xn535oeAkMrh-367" value="" style="shape=partialRectangle;collapsible=0;dropTarget=0;pointerEvents=0;fillColor=none;points=[[0,0.5],[1,0.5]];portConstraint=eastwest;top=0;left=0;right=0;bottom=0;" vertex="1" parent="2IMz6kc5Xn535oeAkMrh-336">
          <mxGeometry y="370" width="103.3644859813084" height="20" as="geometry" />
        </mxCell>
        <mxCell id="2IMz6kc5Xn535oeAkMrh-368" value="" style="shape=partialRectangle;overflow=hidden;connectable=0;fillColor=none;top=0;left=0;bottom=0;right=0;" vertex="1" parent="2IMz6kc5Xn535oeAkMrh-367">
          <mxGeometry width="30" height="20" as="geometry" />
        </mxCell>
        <mxCell id="2IMz6kc5Xn535oeAkMrh-369" value="updated_at" style="shape=partialRectangle;overflow=hidden;connectable=0;fillColor=none;top=0;left=0;bottom=0;right=0;align=left;spacingLeft=6;" vertex="1" parent="2IMz6kc5Xn535oeAkMrh-367">
          <mxGeometry x="30" width="73.3644859813084" height="20" as="geometry" />
        </mxCell>
        <mxCell id="2IMz6kc5Xn535oeAkMrh-370" value="logs" style="shape=table;startSize=30;container=1;collapsible=1;childLayout=tableLayout;fixedRows=1;rowLines=0;fontStyle=1;align=center;resizeLast=1;" vertex="1" parent="2IMz6kc5Xn535oeAkMrh-334">
          <mxGeometry x="486.5514018691589" y="217.67441860465118" width="95.98130841121495" height="240" as="geometry" />
        </mxCell>
        <mxCell id="2IMz6kc5Xn535oeAkMrh-371" value="" style="shape=partialRectangle;collapsible=0;dropTarget=0;pointerEvents=0;fillColor=none;points=[[0,0.5],[1,0.5]];portConstraint=eastwest;top=0;left=0;right=0;bottom=1;" vertex="1" parent="2IMz6kc5Xn535oeAkMrh-370">
          <mxGeometry y="30" width="95.98130841121495" height="30" as="geometry" />
        </mxCell>
        <mxCell id="2IMz6kc5Xn535oeAkMrh-372" value="PK" style="shape=partialRectangle;overflow=hidden;connectable=0;fillColor=none;top=0;left=0;bottom=0;right=0;fontStyle=1;" vertex="1" parent="2IMz6kc5Xn535oeAkMrh-371">
          <mxGeometry width="30" height="30" as="geometry" />
        </mxCell>
        <mxCell id="2IMz6kc5Xn535oeAkMrh-373" value="id " style="shape=partialRectangle;overflow=hidden;connectable=0;fillColor=none;top=0;left=0;bottom=0;right=0;align=left;spacingLeft=6;fontStyle=5;" vertex="1" parent="2IMz6kc5Xn535oeAkMrh-371">
          <mxGeometry x="30" width="65.98130841121495" height="30" as="geometry" />
        </mxCell>
        <mxCell id="2IMz6kc5Xn535oeAkMrh-374" value="" style="shape=partialRectangle;collapsible=0;dropTarget=0;pointerEvents=0;fillColor=none;points=[[0,0.5],[1,0.5]];portConstraint=eastwest;top=0;left=0;right=0;bottom=0;" vertex="1" parent="2IMz6kc5Xn535oeAkMrh-370">
          <mxGeometry y="60" width="95.98130841121495" height="30" as="geometry" />
        </mxCell>
        <mxCell id="2IMz6kc5Xn535oeAkMrh-375" value="" style="shape=partialRectangle;overflow=hidden;connectable=0;fillColor=none;top=0;left=0;bottom=0;right=0;" vertex="1" parent="2IMz6kc5Xn535oeAkMrh-374">
          <mxGeometry width="30" height="30" as="geometry" />
        </mxCell>
        <mxCell id="2IMz6kc5Xn535oeAkMrh-376" value="user_id" style="shape=partialRectangle;overflow=hidden;connectable=0;fillColor=none;top=0;left=0;bottom=0;right=0;align=left;spacingLeft=6;" vertex="1" parent="2IMz6kc5Xn535oeAkMrh-374">
          <mxGeometry x="30" width="65.98130841121495" height="30" as="geometry" />
        </mxCell>
        <mxCell id="2IMz6kc5Xn535oeAkMrh-377" value="" style="shape=partialRectangle;collapsible=0;dropTarget=0;pointerEvents=0;fillColor=none;points=[[0,0.5],[1,0.5]];portConstraint=eastwest;top=0;left=0;right=0;bottom=0;" vertex="1" parent="2IMz6kc5Xn535oeAkMrh-370">
          <mxGeometry y="90" width="95.98130841121495" height="30" as="geometry" />
        </mxCell>
        <mxCell id="2IMz6kc5Xn535oeAkMrh-378" value="" style="shape=partialRectangle;overflow=hidden;connectable=0;fillColor=none;top=0;left=0;bottom=0;right=0;" vertex="1" parent="2IMz6kc5Xn535oeAkMrh-377">
          <mxGeometry width="30" height="30" as="geometry" />
        </mxCell>
        <mxCell id="2IMz6kc5Xn535oeAkMrh-379" value="title" style="shape=partialRectangle;overflow=hidden;connectable=0;fillColor=none;top=0;left=0;bottom=0;right=0;align=left;spacingLeft=6;" vertex="1" parent="2IMz6kc5Xn535oeAkMrh-377">
          <mxGeometry x="30" width="65.98130841121495" height="30" as="geometry" />
        </mxCell>
        <mxCell id="2IMz6kc5Xn535oeAkMrh-380" value="" style="shape=partialRectangle;collapsible=0;dropTarget=0;pointerEvents=0;fillColor=none;points=[[0,0.5],[1,0.5]];portConstraint=eastwest;top=0;left=0;right=0;bottom=0;" vertex="1" parent="2IMz6kc5Xn535oeAkMrh-370">
          <mxGeometry y="120" width="95.98130841121495" height="30" as="geometry" />
        </mxCell>
        <mxCell id="2IMz6kc5Xn535oeAkMrh-381" value="" style="shape=partialRectangle;overflow=hidden;connectable=0;fillColor=none;top=0;left=0;bottom=0;right=0;" vertex="1" parent="2IMz6kc5Xn535oeAkMrh-380">
          <mxGeometry width="30" height="30" as="geometry" />
        </mxCell>
        <mxCell id="2IMz6kc5Xn535oeAkMrh-382" value="text" style="shape=partialRectangle;overflow=hidden;connectable=0;fillColor=none;top=0;left=0;bottom=0;right=0;align=left;spacingLeft=6;" vertex="1" parent="2IMz6kc5Xn535oeAkMrh-380">
          <mxGeometry x="30" width="65.98130841121495" height="30" as="geometry" />
        </mxCell>
        <mxCell id="2IMz6kc5Xn535oeAkMrh-383" value="" style="shape=partialRectangle;collapsible=0;dropTarget=0;pointerEvents=0;fillColor=none;points=[[0,0.5],[1,0.5]];portConstraint=eastwest;top=0;left=0;right=0;bottom=0;" vertex="1" parent="2IMz6kc5Xn535oeAkMrh-370">
          <mxGeometry y="150" width="95.98130841121495" height="30" as="geometry" />
        </mxCell>
        <mxCell id="2IMz6kc5Xn535oeAkMrh-384" value="" style="shape=partialRectangle;overflow=hidden;connectable=0;fillColor=none;top=0;left=0;bottom=0;right=0;" vertex="1" parent="2IMz6kc5Xn535oeAkMrh-383">
          <mxGeometry width="30" height="30" as="geometry" />
        </mxCell>
        <mxCell id="2IMz6kc5Xn535oeAkMrh-385" value="created_at" style="shape=partialRectangle;overflow=hidden;connectable=0;fillColor=none;top=0;left=0;bottom=0;right=0;align=left;spacingLeft=6;" vertex="1" parent="2IMz6kc5Xn535oeAkMrh-383">
          <mxGeometry x="30" width="65.98130841121495" height="30" as="geometry" />
        </mxCell>
        <mxCell id="2IMz6kc5Xn535oeAkMrh-386" value="" style="shape=partialRectangle;collapsible=0;dropTarget=0;pointerEvents=0;fillColor=none;points=[[0,0.5],[1,0.5]];portConstraint=eastwest;top=0;left=0;right=0;bottom=0;" vertex="1" parent="2IMz6kc5Xn535oeAkMrh-370">
          <mxGeometry y="180" width="95.98130841121495" height="30" as="geometry" />
        </mxCell>
        <mxCell id="2IMz6kc5Xn535oeAkMrh-387" value="" style="shape=partialRectangle;overflow=hidden;connectable=0;fillColor=none;top=0;left=0;bottom=0;right=0;" vertex="1" parent="2IMz6kc5Xn535oeAkMrh-386">
          <mxGeometry width="30" height="30" as="geometry" />
        </mxCell>
        <mxCell id="2IMz6kc5Xn535oeAkMrh-388" value="updated_at" style="shape=partialRectangle;overflow=hidden;connectable=0;fillColor=none;top=0;left=0;bottom=0;right=0;align=left;spacingLeft=6;" vertex="1" parent="2IMz6kc5Xn535oeAkMrh-386">
          <mxGeometry x="30" width="65.98130841121495" height="30" as="geometry" />
        </mxCell>
        <mxCell id="2IMz6kc5Xn535oeAkMrh-389" value="" style="shape=partialRectangle;collapsible=0;dropTarget=0;pointerEvents=0;fillColor=none;points=[[0,0.5],[1,0.5]];portConstraint=eastwest;top=0;left=0;right=0;bottom=0;" vertex="1" parent="2IMz6kc5Xn535oeAkMrh-370">
          <mxGeometry y="210" width="95.98130841121495" height="30" as="geometry" />
        </mxCell>
        <mxCell id="2IMz6kc5Xn535oeAkMrh-390" value="" style="shape=partialRectangle;overflow=hidden;connectable=0;fillColor=none;top=0;left=0;bottom=0;right=0;" vertex="1" parent="2IMz6kc5Xn535oeAkMrh-389">
          <mxGeometry width="30" height="30" as="geometry" />
        </mxCell>
        <mxCell id="2IMz6kc5Xn535oeAkMrh-391" value="deleted_at" style="shape=partialRectangle;overflow=hidden;connectable=0;fillColor=none;top=0;left=0;bottom=0;right=0;align=left;spacingLeft=6;" vertex="1" parent="2IMz6kc5Xn535oeAkMrh-389">
          <mxGeometry x="30" width="65.98130841121495" height="30" as="geometry" />
        </mxCell>
        <mxCell id="2IMz6kc5Xn535oeAkMrh-392" value="comments" style="shape=table;startSize=30;container=1;collapsible=1;childLayout=tableLayout;fixedRows=1;rowLines=0;fontStyle=1;align=center;resizeLast=1;" vertex="1" parent="2IMz6kc5Xn535oeAkMrh-334">
          <mxGeometry x="324.12149532710276" y="485.58139534883725" width="88.59813084112149" height="240" as="geometry" />
        </mxCell>
        <mxCell id="2IMz6kc5Xn535oeAkMrh-393" value="" style="shape=partialRectangle;collapsible=0;dropTarget=0;pointerEvents=0;fillColor=none;points=[[0,0.5],[1,0.5]];portConstraint=eastwest;top=0;left=0;right=0;bottom=1;" vertex="1" parent="2IMz6kc5Xn535oeAkMrh-392">
          <mxGeometry y="30" width="88.59813084112149" height="30" as="geometry" />
        </mxCell>
        <mxCell id="2IMz6kc5Xn535oeAkMrh-394" value="PK" style="shape=partialRectangle;overflow=hidden;connectable=0;fillColor=none;top=0;left=0;bottom=0;right=0;fontStyle=1;" vertex="1" parent="2IMz6kc5Xn535oeAkMrh-393">
          <mxGeometry width="30" height="30" as="geometry" />
        </mxCell>
        <mxCell id="2IMz6kc5Xn535oeAkMrh-395" value="id " style="shape=partialRectangle;overflow=hidden;connectable=0;fillColor=none;top=0;left=0;bottom=0;right=0;align=left;spacingLeft=6;fontStyle=5;" vertex="1" parent="2IMz6kc5Xn535oeAkMrh-393">
          <mxGeometry x="30" width="58.59813084112149" height="30" as="geometry" />
        </mxCell>
        <mxCell id="2IMz6kc5Xn535oeAkMrh-396" value="" style="shape=partialRectangle;collapsible=0;dropTarget=0;pointerEvents=0;fillColor=none;points=[[0,0.5],[1,0.5]];portConstraint=eastwest;top=0;left=0;right=0;bottom=0;" vertex="1" parent="2IMz6kc5Xn535oeAkMrh-392">
          <mxGeometry y="60" width="88.59813084112149" height="30" as="geometry" />
        </mxCell>
        <mxCell id="2IMz6kc5Xn535oeAkMrh-397" value="" style="shape=partialRectangle;overflow=hidden;connectable=0;fillColor=none;top=0;left=0;bottom=0;right=0;" vertex="1" parent="2IMz6kc5Xn535oeAkMrh-396">
          <mxGeometry width="30" height="30" as="geometry" />
        </mxCell>
        <mxCell id="2IMz6kc5Xn535oeAkMrh-398" value="user_id" style="shape=partialRectangle;overflow=hidden;connectable=0;fillColor=none;top=0;left=0;bottom=0;right=0;align=left;spacingLeft=6;" vertex="1" parent="2IMz6kc5Xn535oeAkMrh-396">
          <mxGeometry x="30" width="58.59813084112149" height="30" as="geometry" />
        </mxCell>
        <mxCell id="2IMz6kc5Xn535oeAkMrh-399" value="" style="shape=partialRectangle;collapsible=0;dropTarget=0;pointerEvents=0;fillColor=none;points=[[0,0.5],[1,0.5]];portConstraint=eastwest;top=0;left=0;right=0;bottom=0;" vertex="1" parent="2IMz6kc5Xn535oeAkMrh-392">
          <mxGeometry y="90" width="88.59813084112149" height="30" as="geometry" />
        </mxCell>
        <mxCell id="2IMz6kc5Xn535oeAkMrh-400" value="" style="shape=partialRectangle;overflow=hidden;connectable=0;fillColor=none;top=0;left=0;bottom=0;right=0;" vertex="1" parent="2IMz6kc5Xn535oeAkMrh-399">
          <mxGeometry width="30" height="30" as="geometry" />
        </mxCell>
        <mxCell id="2IMz6kc5Xn535oeAkMrh-401" value="log_id" style="shape=partialRectangle;overflow=hidden;connectable=0;fillColor=none;top=0;left=0;bottom=0;right=0;align=left;spacingLeft=6;" vertex="1" parent="2IMz6kc5Xn535oeAkMrh-399">
          <mxGeometry x="30" width="58.59813084112149" height="30" as="geometry" />
        </mxCell>
        <mxCell id="2IMz6kc5Xn535oeAkMrh-402" value="" style="shape=partialRectangle;collapsible=0;dropTarget=0;pointerEvents=0;fillColor=none;points=[[0,0.5],[1,0.5]];portConstraint=eastwest;top=0;left=0;right=0;bottom=0;" vertex="1" parent="2IMz6kc5Xn535oeAkMrh-392">
          <mxGeometry y="120" width="88.59813084112149" height="30" as="geometry" />
        </mxCell>
        <mxCell id="2IMz6kc5Xn535oeAkMrh-403" value="" style="shape=partialRectangle;overflow=hidden;connectable=0;fillColor=none;top=0;left=0;bottom=0;right=0;" vertex="1" parent="2IMz6kc5Xn535oeAkMrh-402">
          <mxGeometry width="30" height="30" as="geometry" />
        </mxCell>
        <mxCell id="2IMz6kc5Xn535oeAkMrh-404" value="text" style="shape=partialRectangle;overflow=hidden;connectable=0;fillColor=none;top=0;left=0;bottom=0;right=0;align=left;spacingLeft=6;" vertex="1" parent="2IMz6kc5Xn535oeAkMrh-402">
          <mxGeometry x="30" width="58.59813084112149" height="30" as="geometry" />
        </mxCell>
        <mxCell id="2IMz6kc5Xn535oeAkMrh-405" value="" style="shape=partialRectangle;collapsible=0;dropTarget=0;pointerEvents=0;fillColor=none;points=[[0,0.5],[1,0.5]];portConstraint=eastwest;top=0;left=0;right=0;bottom=0;" vertex="1" parent="2IMz6kc5Xn535oeAkMrh-392">
          <mxGeometry y="150" width="88.59813084112149" height="30" as="geometry" />
        </mxCell>
        <mxCell id="2IMz6kc5Xn535oeAkMrh-406" value="" style="shape=partialRectangle;overflow=hidden;connectable=0;fillColor=none;top=0;left=0;bottom=0;right=0;" vertex="1" parent="2IMz6kc5Xn535oeAkMrh-405">
          <mxGeometry width="30" height="30" as="geometry" />
        </mxCell>
        <mxCell id="2IMz6kc5Xn535oeAkMrh-407" value="created_at" style="shape=partialRectangle;overflow=hidden;connectable=0;fillColor=none;top=0;left=0;bottom=0;right=0;align=left;spacingLeft=6;" vertex="1" parent="2IMz6kc5Xn535oeAkMrh-405">
          <mxGeometry x="30" width="58.59813084112149" height="30" as="geometry" />
        </mxCell>
        <mxCell id="2IMz6kc5Xn535oeAkMrh-408" value="" style="shape=partialRectangle;collapsible=0;dropTarget=0;pointerEvents=0;fillColor=none;points=[[0,0.5],[1,0.5]];portConstraint=eastwest;top=0;left=0;right=0;bottom=0;" vertex="1" parent="2IMz6kc5Xn535oeAkMrh-392">
          <mxGeometry y="180" width="88.59813084112149" height="30" as="geometry" />
        </mxCell>
        <mxCell id="2IMz6kc5Xn535oeAkMrh-409" value="" style="shape=partialRectangle;overflow=hidden;connectable=0;fillColor=none;top=0;left=0;bottom=0;right=0;" vertex="1" parent="2IMz6kc5Xn535oeAkMrh-408">
          <mxGeometry width="30" height="30" as="geometry" />
        </mxCell>
        <mxCell id="2IMz6kc5Xn535oeAkMrh-410" value="updated_at" style="shape=partialRectangle;overflow=hidden;connectable=0;fillColor=none;top=0;left=0;bottom=0;right=0;align=left;spacingLeft=6;" vertex="1" parent="2IMz6kc5Xn535oeAkMrh-408">
          <mxGeometry x="30" width="58.59813084112149" height="30" as="geometry" />
        </mxCell>
        <mxCell id="2IMz6kc5Xn535oeAkMrh-411" value="" style="shape=partialRectangle;collapsible=0;dropTarget=0;pointerEvents=0;fillColor=none;points=[[0,0.5],[1,0.5]];portConstraint=eastwest;top=0;left=0;right=0;bottom=0;" vertex="1" parent="2IMz6kc5Xn535oeAkMrh-392">
          <mxGeometry y="210" width="88.59813084112149" height="30" as="geometry" />
        </mxCell>
        <mxCell id="2IMz6kc5Xn535oeAkMrh-412" value="" style="shape=partialRectangle;overflow=hidden;connectable=0;fillColor=none;top=0;left=0;bottom=0;right=0;" vertex="1" parent="2IMz6kc5Xn535oeAkMrh-411">
          <mxGeometry width="30" height="30" as="geometry" />
        </mxCell>
        <mxCell id="2IMz6kc5Xn535oeAkMrh-413" value="deleted_at" style="shape=partialRectangle;overflow=hidden;connectable=0;fillColor=none;top=0;left=0;bottom=0;right=0;align=left;spacingLeft=6;" vertex="1" parent="2IMz6kc5Xn535oeAkMrh-411">
          <mxGeometry x="30" width="58.59813084112149" height="30" as="geometry" />
        </mxCell>
        <mxCell id="2IMz6kc5Xn535oeAkMrh-414" value="favorites" style="shape=table;startSize=30;container=1;collapsible=1;childLayout=tableLayout;fixedRows=1;rowLines=0;fontStyle=1;align=center;resizeLast=1;" vertex="1" parent="2IMz6kc5Xn535oeAkMrh-334">
          <mxGeometry x="317.4766355140187" y="309.7674418604651" width="88.59813084112149" height="120" as="geometry" />
        </mxCell>
        <mxCell id="2IMz6kc5Xn535oeAkMrh-415" value="" style="shape=partialRectangle;collapsible=0;dropTarget=0;pointerEvents=0;fillColor=none;points=[[0,0.5],[1,0.5]];portConstraint=eastwest;top=0;left=0;right=0;bottom=1;" vertex="1" parent="2IMz6kc5Xn535oeAkMrh-414">
          <mxGeometry y="30" width="88.59813084112149" height="30" as="geometry" />
        </mxCell>
        <mxCell id="2IMz6kc5Xn535oeAkMrh-416" value="PK" style="shape=partialRectangle;overflow=hidden;connectable=0;fillColor=none;top=0;left=0;bottom=0;right=0;fontStyle=1;" vertex="1" parent="2IMz6kc5Xn535oeAkMrh-415">
          <mxGeometry width="30" height="30" as="geometry" />
        </mxCell>
        <mxCell id="2IMz6kc5Xn535oeAkMrh-417" value="id " style="shape=partialRectangle;overflow=hidden;connectable=0;fillColor=none;top=0;left=0;bottom=0;right=0;align=left;spacingLeft=6;fontStyle=5;" vertex="1" parent="2IMz6kc5Xn535oeAkMrh-415">
          <mxGeometry x="30" width="58.59813084112149" height="30" as="geometry" />
        </mxCell>
        <mxCell id="2IMz6kc5Xn535oeAkMrh-418" value="" style="shape=partialRectangle;collapsible=0;dropTarget=0;pointerEvents=0;fillColor=none;points=[[0,0.5],[1,0.5]];portConstraint=eastwest;top=0;left=0;right=0;bottom=0;" vertex="1" parent="2IMz6kc5Xn535oeAkMrh-414">
          <mxGeometry y="60" width="88.59813084112149" height="30" as="geometry" />
        </mxCell>
        <mxCell id="2IMz6kc5Xn535oeAkMrh-419" value="" style="shape=partialRectangle;overflow=hidden;connectable=0;fillColor=none;top=0;left=0;bottom=0;right=0;" vertex="1" parent="2IMz6kc5Xn535oeAkMrh-418">
          <mxGeometry width="30" height="30" as="geometry" />
        </mxCell>
        <mxCell id="2IMz6kc5Xn535oeAkMrh-420" value="user_id" style="shape=partialRectangle;overflow=hidden;connectable=0;fillColor=none;top=0;left=0;bottom=0;right=0;align=left;spacingLeft=6;" vertex="1" parent="2IMz6kc5Xn535oeAkMrh-418">
          <mxGeometry x="30" width="58.59813084112149" height="30" as="geometry" />
        </mxCell>
        <mxCell id="2IMz6kc5Xn535oeAkMrh-421" value="" style="shape=partialRectangle;collapsible=0;dropTarget=0;pointerEvents=0;fillColor=none;points=[[0,0.5],[1,0.5]];portConstraint=eastwest;top=0;left=0;right=0;bottom=0;" vertex="1" parent="2IMz6kc5Xn535oeAkMrh-414">
          <mxGeometry y="90" width="88.59813084112149" height="30" as="geometry" />
        </mxCell>
        <mxCell id="2IMz6kc5Xn535oeAkMrh-422" value="" style="shape=partialRectangle;overflow=hidden;connectable=0;fillColor=none;top=0;left=0;bottom=0;right=0;" vertex="1" parent="2IMz6kc5Xn535oeAkMrh-421">
          <mxGeometry width="30" height="30" as="geometry" />
        </mxCell>
        <mxCell id="2IMz6kc5Xn535oeAkMrh-423" value="log_id" style="shape=partialRectangle;overflow=hidden;connectable=0;fillColor=none;top=0;left=0;bottom=0;right=0;align=left;spacingLeft=6;" vertex="1" parent="2IMz6kc5Xn535oeAkMrh-421">
          <mxGeometry x="30" width="58.59813084112149" height="30" as="geometry" />
        </mxCell>
        <mxCell id="2IMz6kc5Xn535oeAkMrh-424" value="followers" style="shape=table;startSize=30;container=1;collapsible=1;childLayout=tableLayout;fixedRows=1;rowLines=0;fontStyle=1;align=center;resizeLast=1;" vertex="1" parent="2IMz6kc5Xn535oeAkMrh-334">
          <mxGeometry y="50.23255813953489" width="110.74766355140187" height="90" as="geometry" />
        </mxCell>
        <mxCell id="2IMz6kc5Xn535oeAkMrh-425" value="" style="shape=partialRectangle;collapsible=0;dropTarget=0;pointerEvents=0;fillColor=none;points=[[0,0.5],[1,0.5]];portConstraint=eastwest;top=0;left=0;right=0;bottom=0;" vertex="1" parent="2IMz6kc5Xn535oeAkMrh-424">
          <mxGeometry y="30" width="110.74766355140187" height="30" as="geometry" />
        </mxCell>
        <mxCell id="2IMz6kc5Xn535oeAkMrh-426" value="" style="shape=partialRectangle;overflow=hidden;connectable=0;fillColor=none;top=0;left=0;bottom=0;right=0;" vertex="1" parent="2IMz6kc5Xn535oeAkMrh-425">
          <mxGeometry width="30" height="30" as="geometry" />
        </mxCell>
        <mxCell id="2IMz6kc5Xn535oeAkMrh-427" value="following_id" style="shape=partialRectangle;overflow=hidden;connectable=0;fillColor=none;top=0;left=0;bottom=0;right=0;align=left;spacingLeft=6;" vertex="1" parent="2IMz6kc5Xn535oeAkMrh-425">
          <mxGeometry x="30" width="80.74766355140187" height="30" as="geometry" />
        </mxCell>
        <mxCell id="2IMz6kc5Xn535oeAkMrh-428" value="" style="shape=partialRectangle;collapsible=0;dropTarget=0;pointerEvents=0;fillColor=none;points=[[0,0.5],[1,0.5]];portConstraint=eastwest;top=0;left=0;right=0;bottom=0;" vertex="1" parent="2IMz6kc5Xn535oeAkMrh-424">
          <mxGeometry y="60" width="110.74766355140187" height="30" as="geometry" />
        </mxCell>
        <mxCell id="2IMz6kc5Xn535oeAkMrh-429" value="" style="shape=partialRectangle;overflow=hidden;connectable=0;fillColor=none;top=0;left=0;bottom=0;right=0;" vertex="1" parent="2IMz6kc5Xn535oeAkMrh-428">
          <mxGeometry width="30" height="30" as="geometry" />
        </mxCell>
        <mxCell id="2IMz6kc5Xn535oeAkMrh-430" value="followed_id" style="shape=partialRectangle;overflow=hidden;connectable=0;fillColor=none;top=0;left=0;bottom=0;right=0;align=left;spacingLeft=6;" vertex="1" parent="2IMz6kc5Xn535oeAkMrh-428">
          <mxGeometry x="30" width="80.74766355140187" height="30" as="geometry" />
        </mxCell>
        <mxCell id="2IMz6kc5Xn535oeAkMrh-431" value="events" style="shape=table;startSize=30;container=1;collapsible=1;childLayout=tableLayout;fixedRows=1;rowLines=0;fontStyle=1;align=center;resizeLast=1;" vertex="1" parent="2IMz6kc5Xn535oeAkMrh-334">
          <mxGeometry x="302.7102803738318" width="103.3644859813084" height="270" as="geometry" />
        </mxCell>
        <mxCell id="2IMz6kc5Xn535oeAkMrh-432" value="" style="shape=partialRectangle;collapsible=0;dropTarget=0;pointerEvents=0;fillColor=none;points=[[0,0.5],[1,0.5]];portConstraint=eastwest;top=0;left=0;right=0;bottom=1;" vertex="1" parent="2IMz6kc5Xn535oeAkMrh-431">
          <mxGeometry y="30" width="103.3644859813084" height="30" as="geometry" />
        </mxCell>
        <mxCell id="2IMz6kc5Xn535oeAkMrh-433" value="PK" style="shape=partialRectangle;overflow=hidden;connectable=0;fillColor=none;top=0;left=0;bottom=0;right=0;fontStyle=1;" vertex="1" parent="2IMz6kc5Xn535oeAkMrh-432">
          <mxGeometry width="30" height="30" as="geometry" />
        </mxCell>
        <mxCell id="2IMz6kc5Xn535oeAkMrh-434" value="id " style="shape=partialRectangle;overflow=hidden;connectable=0;fillColor=none;top=0;left=0;bottom=0;right=0;align=left;spacingLeft=6;fontStyle=5;" vertex="1" parent="2IMz6kc5Xn535oeAkMrh-432">
          <mxGeometry x="30" width="73.3644859813084" height="30" as="geometry" />
        </mxCell>
        <mxCell id="2IMz6kc5Xn535oeAkMrh-435" value="" style="shape=partialRectangle;collapsible=0;dropTarget=0;pointerEvents=0;fillColor=none;points=[[0,0.5],[1,0.5]];portConstraint=eastwest;top=0;left=0;right=0;bottom=0;" vertex="1" parent="2IMz6kc5Xn535oeAkMrh-431">
          <mxGeometry y="60" width="103.3644859813084" height="30" as="geometry" />
        </mxCell>
        <mxCell id="2IMz6kc5Xn535oeAkMrh-436" value="" style="shape=partialRectangle;overflow=hidden;connectable=0;fillColor=none;top=0;left=0;bottom=0;right=0;" vertex="1" parent="2IMz6kc5Xn535oeAkMrh-435">
          <mxGeometry width="30" height="30" as="geometry" />
        </mxCell>
        <mxCell id="2IMz6kc5Xn535oeAkMrh-437" value="user_id" style="shape=partialRectangle;overflow=hidden;connectable=0;fillColor=none;top=0;left=0;bottom=0;right=0;align=left;spacingLeft=6;" vertex="1" parent="2IMz6kc5Xn535oeAkMrh-435">
          <mxGeometry x="30" width="73.3644859813084" height="30" as="geometry" />
        </mxCell>
        <mxCell id="2IMz6kc5Xn535oeAkMrh-438" value="" style="shape=partialRectangle;collapsible=0;dropTarget=0;pointerEvents=0;fillColor=none;points=[[0,0.5],[1,0.5]];portConstraint=eastwest;top=0;left=0;right=0;bottom=0;" vertex="1" parent="2IMz6kc5Xn535oeAkMrh-431">
          <mxGeometry y="90" width="103.3644859813084" height="30" as="geometry" />
        </mxCell>
        <mxCell id="2IMz6kc5Xn535oeAkMrh-439" value="" style="shape=partialRectangle;overflow=hidden;connectable=0;fillColor=none;top=0;left=0;bottom=0;right=0;" vertex="1" parent="2IMz6kc5Xn535oeAkMrh-438">
          <mxGeometry width="30" height="30" as="geometry" />
        </mxCell>
        <mxCell id="2IMz6kc5Xn535oeAkMrh-440" value="event_part" style="shape=partialRectangle;overflow=hidden;connectable=0;fillColor=none;top=0;left=0;bottom=0;right=0;align=left;spacingLeft=6;" vertex="1" parent="2IMz6kc5Xn535oeAkMrh-438">
          <mxGeometry x="30" width="73.3644859813084" height="30" as="geometry" />
        </mxCell>
        <mxCell id="2IMz6kc5Xn535oeAkMrh-441" value="" style="shape=partialRectangle;collapsible=0;dropTarget=0;pointerEvents=0;fillColor=none;points=[[0,0.5],[1,0.5]];portConstraint=eastwest;top=0;left=0;right=0;bottom=0;" vertex="1" parent="2IMz6kc5Xn535oeAkMrh-431">
          <mxGeometry y="120" width="103.3644859813084" height="30" as="geometry" />
        </mxCell>
        <mxCell id="2IMz6kc5Xn535oeAkMrh-442" value="" style="shape=partialRectangle;overflow=hidden;connectable=0;fillColor=none;top=0;left=0;bottom=0;right=0;" vertex="1" parent="2IMz6kc5Xn535oeAkMrh-441">
          <mxGeometry width="30" height="30" as="geometry" />
        </mxCell>
        <mxCell id="2IMz6kc5Xn535oeAkMrh-443" value="event_name" style="shape=partialRectangle;overflow=hidden;connectable=0;fillColor=none;top=0;left=0;bottom=0;right=0;align=left;spacingLeft=6;" vertex="1" parent="2IMz6kc5Xn535oeAkMrh-441">
          <mxGeometry x="30" width="73.3644859813084" height="30" as="geometry" />
        </mxCell>
        <mxCell id="2IMz6kc5Xn535oeAkMrh-444" value="" style="shape=partialRectangle;collapsible=0;dropTarget=0;pointerEvents=0;fillColor=none;points=[[0,0.5],[1,0.5]];portConstraint=eastwest;top=0;left=0;right=0;bottom=0;" vertex="1" parent="2IMz6kc5Xn535oeAkMrh-431">
          <mxGeometry y="150" width="103.3644859813084" height="30" as="geometry" />
        </mxCell>
        <mxCell id="2IMz6kc5Xn535oeAkMrh-445" value="" style="shape=partialRectangle;overflow=hidden;connectable=0;fillColor=none;top=0;left=0;bottom=0;right=0;" vertex="1" parent="2IMz6kc5Xn535oeAkMrh-444">
          <mxGeometry width="30" height="30" as="geometry" />
        </mxCell>
        <mxCell id="2IMz6kc5Xn535oeAkMrh-446" value="event_explanation" style="shape=partialRectangle;overflow=hidden;connectable=0;fillColor=none;top=0;left=0;bottom=0;right=0;align=left;spacingLeft=6;" vertex="1" parent="2IMz6kc5Xn535oeAkMrh-444">
          <mxGeometry x="30" width="73.3644859813084" height="30" as="geometry" />
        </mxCell>
        <mxCell id="2IMz6kc5Xn535oeAkMrh-447" value="" style="shape=partialRectangle;collapsible=0;dropTarget=0;pointerEvents=0;fillColor=none;points=[[0,0.5],[1,0.5]];portConstraint=eastwest;top=0;left=0;right=0;bottom=0;" vertex="1" parent="2IMz6kc5Xn535oeAkMrh-431">
          <mxGeometry y="180" width="103.3644859813084" height="30" as="geometry" />
        </mxCell>
        <mxCell id="2IMz6kc5Xn535oeAkMrh-448" value="" style="shape=partialRectangle;overflow=hidden;connectable=0;fillColor=none;top=0;left=0;bottom=0;right=0;" vertex="1" parent="2IMz6kc5Xn535oeAkMrh-447">
          <mxGeometry width="30" height="30" as="geometry" />
        </mxCell>
        <mxCell id="2IMz6kc5Xn535oeAkMrh-449" value="created_at" style="shape=partialRectangle;overflow=hidden;connectable=0;fillColor=none;top=0;left=0;bottom=0;right=0;align=left;spacingLeft=6;" vertex="1" parent="2IMz6kc5Xn535oeAkMrh-447">
          <mxGeometry x="30" width="73.3644859813084" height="30" as="geometry" />
        </mxCell>
        <mxCell id="2IMz6kc5Xn535oeAkMrh-450" value="" style="shape=partialRectangle;collapsible=0;dropTarget=0;pointerEvents=0;fillColor=none;points=[[0,0.5],[1,0.5]];portConstraint=eastwest;top=0;left=0;right=0;bottom=0;" vertex="1" parent="2IMz6kc5Xn535oeAkMrh-431">
          <mxGeometry y="210" width="103.3644859813084" height="30" as="geometry" />
        </mxCell>
        <mxCell id="2IMz6kc5Xn535oeAkMrh-451" value="" style="shape=partialRectangle;overflow=hidden;connectable=0;fillColor=none;top=0;left=0;bottom=0;right=0;" vertex="1" parent="2IMz6kc5Xn535oeAkMrh-450">
          <mxGeometry width="30" height="30" as="geometry" />
        </mxCell>
        <mxCell id="2IMz6kc5Xn535oeAkMrh-452" value="updated_at" style="shape=partialRectangle;overflow=hidden;connectable=0;fillColor=none;top=0;left=0;bottom=0;right=0;align=left;spacingLeft=6;" vertex="1" parent="2IMz6kc5Xn535oeAkMrh-450">
          <mxGeometry x="30" width="73.3644859813084" height="30" as="geometry" />
        </mxCell>
        <mxCell id="2IMz6kc5Xn535oeAkMrh-453" value="" style="shape=partialRectangle;collapsible=0;dropTarget=0;pointerEvents=0;fillColor=none;points=[[0,0.5],[1,0.5]];portConstraint=eastwest;top=0;left=0;right=0;bottom=0;" vertex="1" parent="2IMz6kc5Xn535oeAkMrh-431">
          <mxGeometry y="240" width="103.3644859813084" height="30" as="geometry" />
        </mxCell>
        <mxCell id="2IMz6kc5Xn535oeAkMrh-454" value="" style="shape=partialRectangle;overflow=hidden;connectable=0;fillColor=none;top=0;left=0;bottom=0;right=0;" vertex="1" parent="2IMz6kc5Xn535oeAkMrh-453">
          <mxGeometry width="30" height="30" as="geometry" />
        </mxCell>
        <mxCell id="2IMz6kc5Xn535oeAkMrh-455" value="deleted_at" style="shape=partialRectangle;overflow=hidden;connectable=0;fillColor=none;top=0;left=0;bottom=0;right=0;align=left;spacingLeft=6;" vertex="1" parent="2IMz6kc5Xn535oeAkMrh-453">
          <mxGeometry x="30" width="73.3644859813084" height="30" as="geometry" />
        </mxCell>
        <mxCell id="2IMz6kc5Xn535oeAkMrh-456" value="event_logs" style="shape=table;startSize=30;container=1;collapsible=1;childLayout=tableLayout;fixedRows=1;rowLines=0;fontStyle=1;align=center;resizeLast=1;" vertex="1" parent="2IMz6kc5Xn535oeAkMrh-334">
          <mxGeometry x="679.2523364485982" y="167.4418604651163" width="110.74766355140187" height="270" as="geometry" />
        </mxCell>
        <mxCell id="2IMz6kc5Xn535oeAkMrh-457" value="" style="shape=partialRectangle;collapsible=0;dropTarget=0;pointerEvents=0;fillColor=none;points=[[0,0.5],[1,0.5]];portConstraint=eastwest;top=0;left=0;right=0;bottom=1;" vertex="1" parent="2IMz6kc5Xn535oeAkMrh-456">
          <mxGeometry y="30" width="110.74766355140187" height="30" as="geometry" />
        </mxCell>
        <mxCell id="2IMz6kc5Xn535oeAkMrh-458" value="PK" style="shape=partialRectangle;overflow=hidden;connectable=0;fillColor=none;top=0;left=0;bottom=0;right=0;fontStyle=1;" vertex="1" parent="2IMz6kc5Xn535oeAkMrh-457">
          <mxGeometry width="30" height="30" as="geometry" />
        </mxCell>
        <mxCell id="2IMz6kc5Xn535oeAkMrh-459" value="id " style="shape=partialRectangle;overflow=hidden;connectable=0;fillColor=none;top=0;left=0;bottom=0;right=0;align=left;spacingLeft=6;fontStyle=5;" vertex="1" parent="2IMz6kc5Xn535oeAkMrh-457">
          <mxGeometry x="30" width="80.74766355140187" height="30" as="geometry" />
        </mxCell>
        <mxCell id="2IMz6kc5Xn535oeAkMrh-460" value="" style="shape=partialRectangle;collapsible=0;dropTarget=0;pointerEvents=0;fillColor=none;points=[[0,0.5],[1,0.5]];portConstraint=eastwest;top=0;left=0;right=0;bottom=0;" vertex="1" parent="2IMz6kc5Xn535oeAkMrh-456">
          <mxGeometry y="60" width="110.74766355140187" height="30" as="geometry" />
        </mxCell>
        <mxCell id="2IMz6kc5Xn535oeAkMrh-461" value="" style="shape=partialRectangle;overflow=hidden;connectable=0;fillColor=none;top=0;left=0;bottom=0;right=0;" vertex="1" parent="2IMz6kc5Xn535oeAkMrh-460">
          <mxGeometry width="30" height="30" as="geometry" />
        </mxCell>
        <mxCell id="2IMz6kc5Xn535oeAkMrh-462" value="log_id" style="shape=partialRectangle;overflow=hidden;connectable=0;fillColor=none;top=0;left=0;bottom=0;right=0;align=left;spacingLeft=6;" vertex="1" parent="2IMz6kc5Xn535oeAkMrh-460">
          <mxGeometry x="30" width="80.74766355140187" height="30" as="geometry" />
        </mxCell>
        <mxCell id="2IMz6kc5Xn535oeAkMrh-463" value="" style="shape=partialRectangle;collapsible=0;dropTarget=0;pointerEvents=0;fillColor=none;points=[[0,0.5],[1,0.5]];portConstraint=eastwest;top=0;left=0;right=0;bottom=0;" vertex="1" parent="2IMz6kc5Xn535oeAkMrh-456">
          <mxGeometry y="90" width="110.74766355140187" height="30" as="geometry" />
        </mxCell>
        <mxCell id="2IMz6kc5Xn535oeAkMrh-464" value="" style="shape=partialRectangle;overflow=hidden;connectable=0;fillColor=none;top=0;left=0;bottom=0;right=0;" vertex="1" parent="2IMz6kc5Xn535oeAkMrh-463">
          <mxGeometry width="30" height="30" as="geometry" />
        </mxCell>
        <mxCell id="2IMz6kc5Xn535oeAkMrh-465" value="event_id" style="shape=partialRectangle;overflow=hidden;connectable=0;fillColor=none;top=0;left=0;bottom=0;right=0;align=left;spacingLeft=6;" vertex="1" parent="2IMz6kc5Xn535oeAkMrh-463">
          <mxGeometry x="30" width="80.74766355140187" height="30" as="geometry" />
        </mxCell>
        <mxCell id="2IMz6kc5Xn535oeAkMrh-466" value="" style="shape=partialRectangle;collapsible=0;dropTarget=0;pointerEvents=0;fillColor=none;points=[[0,0.5],[1,0.5]];portConstraint=eastwest;top=0;left=0;right=0;bottom=0;" vertex="1" parent="2IMz6kc5Xn535oeAkMrh-456">
          <mxGeometry y="120" width="110.74766355140187" height="30" as="geometry" />
        </mxCell>
        <mxCell id="2IMz6kc5Xn535oeAkMrh-467" value="" style="shape=partialRectangle;overflow=hidden;connectable=0;fillColor=none;top=0;left=0;bottom=0;right=0;" vertex="1" parent="2IMz6kc5Xn535oeAkMrh-466">
          <mxGeometry width="30" height="30" as="geometry" />
        </mxCell>
        <mxCell id="2IMz6kc5Xn535oeAkMrh-468" value="weight" style="shape=partialRectangle;overflow=hidden;connectable=0;fillColor=none;top=0;left=0;bottom=0;right=0;align=left;spacingLeft=6;" vertex="1" parent="2IMz6kc5Xn535oeAkMrh-466">
          <mxGeometry x="30" width="80.74766355140187" height="30" as="geometry" />
        </mxCell>
        <mxCell id="2IMz6kc5Xn535oeAkMrh-469" value="" style="shape=partialRectangle;collapsible=0;dropTarget=0;pointerEvents=0;fillColor=none;points=[[0,0.5],[1,0.5]];portConstraint=eastwest;top=0;left=0;right=0;bottom=0;" vertex="1" parent="2IMz6kc5Xn535oeAkMrh-456">
          <mxGeometry y="150" width="110.74766355140187" height="30" as="geometry" />
        </mxCell>
        <mxCell id="2IMz6kc5Xn535oeAkMrh-470" value="" style="shape=partialRectangle;overflow=hidden;connectable=0;fillColor=none;top=0;left=0;bottom=0;right=0;" vertex="1" parent="2IMz6kc5Xn535oeAkMrh-469">
          <mxGeometry width="30" height="30" as="geometry" />
        </mxCell>
        <mxCell id="2IMz6kc5Xn535oeAkMrh-471" value="rep" style="shape=partialRectangle;overflow=hidden;connectable=0;fillColor=none;top=0;left=0;bottom=0;right=0;align=left;spacingLeft=6;" vertex="1" parent="2IMz6kc5Xn535oeAkMrh-469">
          <mxGeometry x="30" width="80.74766355140187" height="30" as="geometry" />
        </mxCell>
        <mxCell id="2IMz6kc5Xn535oeAkMrh-472" value="" style="shape=partialRectangle;collapsible=0;dropTarget=0;pointerEvents=0;fillColor=none;points=[[0,0.5],[1,0.5]];portConstraint=eastwest;top=0;left=0;right=0;bottom=0;" vertex="1" parent="2IMz6kc5Xn535oeAkMrh-456">
          <mxGeometry y="180" width="110.74766355140187" height="30" as="geometry" />
        </mxCell>
        <mxCell id="2IMz6kc5Xn535oeAkMrh-473" value="" style="shape=partialRectangle;overflow=hidden;connectable=0;fillColor=none;top=0;left=0;bottom=0;right=0;" vertex="1" parent="2IMz6kc5Xn535oeAkMrh-472">
          <mxGeometry width="30" height="30" as="geometry" />
        </mxCell>
        <mxCell id="2IMz6kc5Xn535oeAkMrh-474" value="set" style="shape=partialRectangle;overflow=hidden;connectable=0;fillColor=none;top=0;left=0;bottom=0;right=0;align=left;spacingLeft=6;" vertex="1" parent="2IMz6kc5Xn535oeAkMrh-472">
          <mxGeometry x="30" width="80.74766355140187" height="30" as="geometry" />
        </mxCell>
        <mxCell id="2IMz6kc5Xn535oeAkMrh-475" value="" style="shape=partialRectangle;collapsible=0;dropTarget=0;pointerEvents=0;fillColor=none;points=[[0,0.5],[1,0.5]];portConstraint=eastwest;top=0;left=0;right=0;bottom=0;" vertex="1" parent="2IMz6kc5Xn535oeAkMrh-456">
          <mxGeometry y="210" width="110.74766355140187" height="30" as="geometry" />
        </mxCell>
        <mxCell id="2IMz6kc5Xn535oeAkMrh-476" value="" style="shape=partialRectangle;overflow=hidden;connectable=0;fillColor=none;top=0;left=0;bottom=0;right=0;" vertex="1" parent="2IMz6kc5Xn535oeAkMrh-475">
          <mxGeometry width="30" height="30" as="geometry" />
        </mxCell>
        <mxCell id="2IMz6kc5Xn535oeAkMrh-477" value="created_at" style="shape=partialRectangle;overflow=hidden;connectable=0;fillColor=none;top=0;left=0;bottom=0;right=0;align=left;spacingLeft=6;" vertex="1" parent="2IMz6kc5Xn535oeAkMrh-475">
          <mxGeometry x="30" width="80.74766355140187" height="30" as="geometry" />
        </mxCell>
        <mxCell id="2IMz6kc5Xn535oeAkMrh-478" value="" style="shape=partialRectangle;collapsible=0;dropTarget=0;pointerEvents=0;fillColor=none;points=[[0,0.5],[1,0.5]];portConstraint=eastwest;top=0;left=0;right=0;bottom=0;" vertex="1" parent="2IMz6kc5Xn535oeAkMrh-456">
          <mxGeometry y="240" width="110.74766355140187" height="30" as="geometry" />
        </mxCell>
        <mxCell id="2IMz6kc5Xn535oeAkMrh-479" value="" style="shape=partialRectangle;overflow=hidden;connectable=0;fillColor=none;top=0;left=0;bottom=0;right=0;" vertex="1" parent="2IMz6kc5Xn535oeAkMrh-478">
          <mxGeometry width="30" height="30" as="geometry" />
        </mxCell>
        <mxCell id="2IMz6kc5Xn535oeAkMrh-480" value="updated_at" style="shape=partialRectangle;overflow=hidden;connectable=0;fillColor=none;top=0;left=0;bottom=0;right=0;align=left;spacingLeft=6;" vertex="1" parent="2IMz6kc5Xn535oeAkMrh-478">
          <mxGeometry x="30" width="80.74766355140187" height="30" as="geometry" />
        </mxCell>
        <mxCell id="2IMz6kc5Xn535oeAkMrh-481" value="event_logs_events" style="shape=table;startSize=30;container=1;collapsible=1;childLayout=tableLayout;fixedRows=1;rowLines=0;fontStyle=1;align=center;resizeLast=1;" vertex="1" parent="2IMz6kc5Xn535oeAkMrh-334">
          <mxGeometry x="561.1214953271027" width="118.13084112149532" height="90" as="geometry" />
        </mxCell>
        <mxCell id="2IMz6kc5Xn535oeAkMrh-482" value="" style="shape=partialRectangle;collapsible=0;dropTarget=0;pointerEvents=0;fillColor=none;points=[[0,0.5],[1,0.5]];portConstraint=eastwest;top=0;left=0;right=0;bottom=0;" vertex="1" parent="2IMz6kc5Xn535oeAkMrh-481">
          <mxGeometry y="30" width="118.13084112149532" height="30" as="geometry" />
        </mxCell>
        <mxCell id="2IMz6kc5Xn535oeAkMrh-483" value="" style="shape=partialRectangle;overflow=hidden;connectable=0;fillColor=none;top=0;left=0;bottom=0;right=0;" vertex="1" parent="2IMz6kc5Xn535oeAkMrh-482">
          <mxGeometry width="30" height="30" as="geometry" />
        </mxCell>
        <mxCell id="2IMz6kc5Xn535oeAkMrh-484" value="event_id" style="shape=partialRectangle;overflow=hidden;connectable=0;fillColor=none;top=0;left=0;bottom=0;right=0;align=left;spacingLeft=6;" vertex="1" parent="2IMz6kc5Xn535oeAkMrh-482">
          <mxGeometry x="30" width="88.13084112149532" height="30" as="geometry" />
        </mxCell>
        <mxCell id="2IMz6kc5Xn535oeAkMrh-485" value="" style="shape=partialRectangle;collapsible=0;dropTarget=0;pointerEvents=0;fillColor=none;points=[[0,0.5],[1,0.5]];portConstraint=eastwest;top=0;left=0;right=0;bottom=0;" vertex="1" parent="2IMz6kc5Xn535oeAkMrh-481">
          <mxGeometry y="60" width="118.13084112149532" height="30" as="geometry" />
        </mxCell>
        <mxCell id="2IMz6kc5Xn535oeAkMrh-486" value="" style="shape=partialRectangle;overflow=hidden;connectable=0;fillColor=none;top=0;left=0;bottom=0;right=0;" vertex="1" parent="2IMz6kc5Xn535oeAkMrh-485">
          <mxGeometry width="30" height="30" as="geometry" />
        </mxCell>
        <mxCell id="2IMz6kc5Xn535oeAkMrh-487" value="eventg_log_id" style="shape=partialRectangle;overflow=hidden;connectable=0;fillColor=none;top=0;left=0;bottom=0;right=0;align=left;spacingLeft=6;" vertex="1" parent="2IMz6kc5Xn535oeAkMrh-485">
          <mxGeometry x="30" width="88.13084112149532" height="30" as="geometry" />
        </mxCell>
        <mxCell id="2IMz6kc5Xn535oeAkMrh-488" value="" style="group" vertex="1" connectable="0" parent="2IMz6kc5Xn535oeAkMrh-334">
          <mxGeometry x="410.50467289719626" y="360" width="73.09345794392524" height="16.74418604651163" as="geometry" />
        </mxCell>
        <mxCell id="2IMz6kc5Xn535oeAkMrh-489" value="" style="endArrow=none;html=1;" edge="1" parent="2IMz6kc5Xn535oeAkMrh-488">
          <mxGeometry x="-3.6546728971962623" width="36.54672897196263" height="41.86046511627907" as="geometry">
            <mxPoint x="61.22099198931903" y="8.372093023255815" as="sourcePoint" />
            <mxPoint x="72.6026875834446" as="targetPoint" />
          </mxGeometry>
        </mxCell>
        <mxCell id="2IMz6kc5Xn535oeAkMrh-490" value="" style="endArrow=none;html=1;" edge="1" parent="2IMz6kc5Xn535oeAkMrh-488">
          <mxGeometry x="-3.6546728971962623" width="36.54672897196263" height="41.86046511627907" as="geometry">
            <mxPoint x="61.22099198931911" y="8.372093023255815" as="sourcePoint" />
            <mxPoint x="72.6026875834446" y="16.74418604651163" as="targetPoint" />
          </mxGeometry>
        </mxCell>
        <mxCell id="2IMz6kc5Xn535oeAkMrh-491" value="" style="endArrow=none;html=1;" edge="1" parent="2IMz6kc5Xn535oeAkMrh-488">
          <mxGeometry width="36.54672897196263" height="41.86046511627907" as="geometry">
            <mxPoint y="8.372093023255815" as="sourcePoint" />
            <mxPoint x="73.09345794392526" y="8.372093023255815" as="targetPoint" />
          </mxGeometry>
        </mxCell>
        <mxCell id="2IMz6kc5Xn535oeAkMrh-492" value="" style="endArrow=none;html=1;" edge="1" parent="2IMz6kc5Xn535oeAkMrh-488">
          <mxGeometry width="50" height="50" relative="1" as="geometry">
            <mxPoint y="12.558139534883722" as="sourcePoint" />
            <mxPoint y="4.186046511627907" as="targetPoint" />
          </mxGeometry>
        </mxCell>
        <mxCell id="2IMz6kc5Xn535oeAkMrh-493" value="" style="group;rotation=-180;" vertex="1" connectable="0" parent="2IMz6kc5Xn535oeAkMrh-334">
          <mxGeometry x="256.196261682243" y="360" width="64.97196261682242" height="16.74418604651163" as="geometry" />
        </mxCell>
        <mxCell id="2IMz6kc5Xn535oeAkMrh-494" value="" style="endArrow=none;html=1;" edge="1" parent="2IMz6kc5Xn535oeAkMrh-493">
          <mxGeometry x="28.08077753275695" y="-25.116279069767444" width="32.48598130841122" height="41.86046511627907" as="geometry">
            <mxPoint x="3.1420444071079374" y="8.372093023255815" as="sourcePoint" />
            <mxPoint x="-6.702192353016673" y="16.74418604651163" as="targetPoint" />
          </mxGeometry>
        </mxCell>
        <mxCell id="2IMz6kc5Xn535oeAkMrh-495" value="" style="endArrow=none;html=1;" edge="1" parent="2IMz6kc5Xn535oeAkMrh-493">
          <mxGeometry x="28.08077753275695" y="-25.116279069767444" width="32.48598130841122" height="41.86046511627907" as="geometry">
            <mxPoint x="3.1420444071079374" y="8.372093023255815" as="sourcePoint" />
            <mxPoint x="-6.702192353016673" as="targetPoint" />
          </mxGeometry>
        </mxCell>
        <mxCell id="2IMz6kc5Xn535oeAkMrh-496" value="" style="endArrow=none;html=1;" edge="1" parent="2IMz6kc5Xn535oeAkMrh-493">
          <mxGeometry x="25.455647730057056" y="-25.116279069767444" width="32.48598130841122" height="41.86046511627907" as="geometry">
            <mxPoint x="57.613487813130774" y="8.372093023255815" as="sourcePoint" />
            <mxPoint x="-7.358474803691647" y="8.372093023255815" as="targetPoint" />
          </mxGeometry>
        </mxCell>
        <mxCell id="2IMz6kc5Xn535oeAkMrh-497" value="" style="endArrow=none;html=1;" edge="1" parent="2IMz6kc5Xn535oeAkMrh-493">
          <mxGeometry width="50" height="50" relative="1" as="geometry">
            <mxPoint x="58.32710280373831" y="12.558139534883722" as="sourcePoint" />
            <mxPoint x="58.32710280373831" y="4.186046511627907" as="targetPoint" />
          </mxGeometry>
        </mxCell>
        <mxCell id="2IMz6kc5Xn535oeAkMrh-498" value="" style="group" vertex="1" connectable="0" parent="2IMz6kc5Xn535oeAkMrh-334">
          <mxGeometry x="246.59813084112147" y="534.139534883721" width="73.09345794392524" height="16.74418604651163" as="geometry" />
        </mxCell>
        <mxCell id="2IMz6kc5Xn535oeAkMrh-499" value="" style="endArrow=none;html=1;" edge="1" parent="2IMz6kc5Xn535oeAkMrh-498">
          <mxGeometry x="-3.6546728971962623" width="36.54672897196263" height="41.86046511627907" as="geometry">
            <mxPoint x="61.22099198931903" y="8.372093023255815" as="sourcePoint" />
            <mxPoint x="72.6026875834446" as="targetPoint" />
          </mxGeometry>
        </mxCell>
        <mxCell id="2IMz6kc5Xn535oeAkMrh-500" value="" style="endArrow=none;html=1;" edge="1" parent="2IMz6kc5Xn535oeAkMrh-498">
          <mxGeometry x="-3.6546728971962623" width="36.54672897196263" height="41.86046511627907" as="geometry">
            <mxPoint x="61.22099198931911" y="8.372093023255815" as="sourcePoint" />
            <mxPoint x="72.6026875834446" y="16.74418604651163" as="targetPoint" />
          </mxGeometry>
        </mxCell>
        <mxCell id="2IMz6kc5Xn535oeAkMrh-501" value="" style="endArrow=none;html=1;" edge="1" parent="2IMz6kc5Xn535oeAkMrh-498">
          <mxGeometry width="36.54672897196263" height="41.86046511627907" as="geometry">
            <mxPoint y="8.372093023255815" as="sourcePoint" />
            <mxPoint x="73.09345794392526" y="8.372093023255815" as="targetPoint" />
          </mxGeometry>
        </mxCell>
        <mxCell id="2IMz6kc5Xn535oeAkMrh-502" value="" style="endArrow=none;html=1;" edge="1" parent="2IMz6kc5Xn535oeAkMrh-498">
          <mxGeometry width="50" height="50" relative="1" as="geometry">
            <mxPoint y="12.558139534883722" as="sourcePoint" />
            <mxPoint y="4.186046511627907" as="targetPoint" />
          </mxGeometry>
        </mxCell>
        <mxCell id="2IMz6kc5Xn535oeAkMrh-503" value="" style="group" vertex="1" connectable="0" parent="2IMz6kc5Xn535oeAkMrh-334">
          <mxGeometry x="587.7009345794391" y="360" width="88.59813084112149" height="16.74418604651163" as="geometry" />
        </mxCell>
        <mxCell id="2IMz6kc5Xn535oeAkMrh-504" value="" style="endArrow=none;html=1;" edge="1" parent="2IMz6kc5Xn535oeAkMrh-503">
          <mxGeometry x="-4.429906542056075" width="44.299065420560744" height="41.86046511627907" as="geometry">
            <mxPoint x="74.20726301735638" y="8.372093023255815" as="sourcePoint" />
            <mxPoint x="88.00325767690255" as="targetPoint" />
          </mxGeometry>
        </mxCell>
        <mxCell id="2IMz6kc5Xn535oeAkMrh-505" value="" style="endArrow=none;html=1;" edge="1" parent="2IMz6kc5Xn535oeAkMrh-503">
          <mxGeometry x="-4.429906542056075" width="44.299065420560744" height="41.86046511627907" as="geometry">
            <mxPoint x="74.20726301735648" y="8.372093023255815" as="sourcePoint" />
            <mxPoint x="88.00325767690255" y="16.74418604651163" as="targetPoint" />
          </mxGeometry>
        </mxCell>
        <mxCell id="2IMz6kc5Xn535oeAkMrh-506" value="" style="endArrow=none;html=1;" edge="1" parent="2IMz6kc5Xn535oeAkMrh-503">
          <mxGeometry width="44.299065420560744" height="41.86046511627907" as="geometry">
            <mxPoint y="8.372093023255815" as="sourcePoint" />
            <mxPoint x="88.59813084112149" y="8.372093023255815" as="targetPoint" />
          </mxGeometry>
        </mxCell>
        <mxCell id="2IMz6kc5Xn535oeAkMrh-507" value="" style="endArrow=none;html=1;" edge="1" parent="2IMz6kc5Xn535oeAkMrh-503">
          <mxGeometry width="50" height="50" relative="1" as="geometry">
            <mxPoint y="12.558139534883722" as="sourcePoint" />
            <mxPoint y="4.186046511627907" as="targetPoint" />
          </mxGeometry>
        </mxCell>
        <mxCell id="2IMz6kc5Xn535oeAkMrh-508" value="" style="group" vertex="1" connectable="0" parent="2IMz6kc5Xn535oeAkMrh-334">
          <mxGeometry x="412.71962616822424" y="560.9302325581396" width="141.01869158878503" height="16.74418604651163" as="geometry" />
        </mxCell>
        <mxCell id="2IMz6kc5Xn535oeAkMrh-509" value="" style="group;rotation=-180;" vertex="1" connectable="0" parent="2IMz6kc5Xn535oeAkMrh-508">
          <mxGeometry x="3.691588785046729" width="73.09345794392524" height="16.74418604651163" as="geometry" />
        </mxCell>
        <mxCell id="2IMz6kc5Xn535oeAkMrh-510" value="" style="endArrow=none;html=1;" edge="1" parent="2IMz6kc5Xn535oeAkMrh-509">
          <mxGeometry x="39.86915887850468" y="-25.116279069767444" width="36.54672897196263" height="41.86046511627907" as="geometry">
            <mxPoint x="11.813084112149534" y="8.372093023255815" as="sourcePoint" />
            <mxPoint x="0.7383177570093459" y="16.74418604651163" as="targetPoint" />
          </mxGeometry>
        </mxCell>
        <mxCell id="2IMz6kc5Xn535oeAkMrh-511" value="" style="endArrow=none;html=1;" edge="1" parent="2IMz6kc5Xn535oeAkMrh-509">
          <mxGeometry x="39.86915887850468" y="-25.116279069767444" width="36.54672897196263" height="41.86046511627907" as="geometry">
            <mxPoint x="11.813084112149534" y="8.372093023255815" as="sourcePoint" />
            <mxPoint x="0.7383177570093459" as="targetPoint" />
          </mxGeometry>
        </mxCell>
        <mxCell id="2IMz6kc5Xn535oeAkMrh-512" value="" style="endArrow=none;html=1;" edge="1" parent="2IMz6kc5Xn535oeAkMrh-509">
          <mxGeometry x="36.91588785046729" y="-25.116279069767444" width="36.54672897196263" height="41.86046511627907" as="geometry">
            <mxPoint x="73.09345794392524" y="8.372093023255815" as="sourcePoint" />
            <mxPoint y="8.372093023255815" as="targetPoint" />
          </mxGeometry>
        </mxCell>
        <mxCell id="2IMz6kc5Xn535oeAkMrh-513" value="" style="endArrow=none;html=1;" edge="1" parent="2IMz6kc5Xn535oeAkMrh-508">
          <mxGeometry width="50" height="50" relative="1" as="geometry">
            <mxPoint x="73.83177570093457" y="8.372093023255815" as="sourcePoint" />
            <mxPoint x="141.01869158878503" y="-133.95348837209303" as="targetPoint" />
            <Array as="points">
              <mxPoint x="141.01869158878503" y="8.372093023255815" />
            </Array>
          </mxGeometry>
        </mxCell>
        <mxCell id="2IMz6kc5Xn535oeAkMrh-514" value="" style="endArrow=none;html=1;" edge="1" parent="2IMz6kc5Xn535oeAkMrh-334">
          <mxGeometry width="50" height="50" relative="1" as="geometry">
            <mxPoint x="59.06542056074766" y="368.37209302325584" as="sourcePoint" />
            <mxPoint x="22.149532710280372" y="142.32558139534885" as="targetPoint" />
            <Array as="points">
              <mxPoint x="22.149532710280372" y="368.37209302325584" />
            </Array>
          </mxGeometry>
        </mxCell>
        <mxCell id="2IMz6kc5Xn535oeAkMrh-515" value="" style="group" vertex="1" connectable="0" parent="2IMz6kc5Xn535oeAkMrh-334">
          <mxGeometry x="59.06542056074766" y="360" width="73.83177570093457" height="16.74418604651163" as="geometry" />
        </mxCell>
        <mxCell id="2IMz6kc5Xn535oeAkMrh-516" value="" style="endArrow=none;html=1;" edge="1" parent="2IMz6kc5Xn535oeAkMrh-515">
          <mxGeometry x="-3.691588785046729" width="36.91588785046729" height="41.86046511627907" as="geometry">
            <mxPoint x="61.83938584779699" y="8.372093023255815" as="sourcePoint" />
            <mxPoint x="73.33604806408545" as="targetPoint" />
          </mxGeometry>
        </mxCell>
        <mxCell id="2IMz6kc5Xn535oeAkMrh-517" value="" style="endArrow=none;html=1;" edge="1" parent="2IMz6kc5Xn535oeAkMrh-515">
          <mxGeometry x="-3.691588785046729" width="36.91588785046729" height="41.86046511627907" as="geometry">
            <mxPoint x="61.83938584779707" y="8.372093023255815" as="sourcePoint" />
            <mxPoint x="73.33604806408545" y="16.74418604651163" as="targetPoint" />
          </mxGeometry>
        </mxCell>
        <mxCell id="2IMz6kc5Xn535oeAkMrh-518" value="" style="endArrow=none;html=1;" edge="1" parent="2IMz6kc5Xn535oeAkMrh-515">
          <mxGeometry width="36.91588785046729" height="41.86046511627907" as="geometry">
            <mxPoint y="8.372093023255815" as="sourcePoint" />
            <mxPoint x="73.83177570093459" y="8.372093023255815" as="targetPoint" />
          </mxGeometry>
        </mxCell>
        <mxCell id="2IMz6kc5Xn535oeAkMrh-519" value="" style="endArrow=none;html=1;" edge="1" parent="2IMz6kc5Xn535oeAkMrh-334">
          <mxGeometry width="50" height="50" relative="1" as="geometry">
            <mxPoint x="118.13084112149532" y="75.34883720930233" as="sourcePoint" />
            <mxPoint x="169.81308411214954" y="159.06976744186048" as="targetPoint" />
            <Array as="points">
              <mxPoint x="169.81308411214954" y="75.34883720930233" />
            </Array>
          </mxGeometry>
        </mxCell>
        <mxCell id="2IMz6kc5Xn535oeAkMrh-520" value="" style="group;rotation=90;" vertex="1" connectable="0" parent="2IMz6kc5Xn535oeAkMrh-334">
          <mxGeometry x="137.3271028037383" y="175.8139534883721" width="64.97196261682242" height="16.74418604651163" as="geometry" />
        </mxCell>
        <mxCell id="2IMz6kc5Xn535oeAkMrh-521" value="" style="endArrow=none;html=1;" edge="1" parent="2IMz6kc5Xn535oeAkMrh-520">
          <mxGeometry x="5.168224299065421" y="-25.953488372093023" width="32.48598130841122" height="41.86046511627907" as="geometry">
            <mxPoint x="32.48598130841121" y="41.86046511627907" as="sourcePoint" />
            <mxPoint x="39.86915887850468" y="52.74418604651163" as="targetPoint" />
          </mxGeometry>
        </mxCell>
        <mxCell id="2IMz6kc5Xn535oeAkMrh-522" value="" style="endArrow=none;html=1;" edge="1" parent="2IMz6kc5Xn535oeAkMrh-520">
          <mxGeometry x="5.168224299065421" y="-25.953488372093023" width="32.48598130841122" height="41.86046511627907" as="geometry">
            <mxPoint x="32.48598130841121" y="41.86046511627907" as="sourcePoint" />
            <mxPoint x="25.102803738317757" y="52.74418604651163" as="targetPoint" />
          </mxGeometry>
        </mxCell>
        <mxCell id="2IMz6kc5Xn535oeAkMrh-523" value="" style="endArrow=none;html=1;" edge="1" parent="2IMz6kc5Xn535oeAkMrh-520">
          <mxGeometry x="5.168224299065421" y="-22.6046511627907" width="32.48598130841122" height="41.86046511627907" as="geometry">
            <mxPoint x="32.48598130841121" y="-20.093023255813954" as="sourcePoint" />
            <mxPoint x="32.48598130841121" y="53.58139534883721" as="targetPoint" />
          </mxGeometry>
        </mxCell>
        <mxCell id="2IMz6kc5Xn535oeAkMrh-524" value="" style="endArrow=none;html=1;" edge="1" parent="2IMz6kc5Xn535oeAkMrh-334">
          <mxGeometry width="50" height="50" relative="1" as="geometry">
            <mxPoint x="209.6822429906542" y="226.046511627907" as="sourcePoint" />
            <mxPoint x="265.7943925233645" y="50.23255813953489" as="targetPoint" />
            <Array as="points">
              <mxPoint x="209.6822429906542" y="117.2093023255814" />
              <mxPoint x="209.6822429906542" y="50.23255813953489" />
            </Array>
          </mxGeometry>
        </mxCell>
        <mxCell id="2IMz6kc5Xn535oeAkMrh-525" value="" style="group" vertex="1" connectable="0" parent="2IMz6kc5Xn535oeAkMrh-334">
          <mxGeometry x="225.9252336448598" y="41.86046511627907" width="73.09345794392524" height="16.74418604651163" as="geometry" />
        </mxCell>
        <mxCell id="2IMz6kc5Xn535oeAkMrh-526" value="" style="endArrow=none;html=1;" edge="1" parent="2IMz6kc5Xn535oeAkMrh-525">
          <mxGeometry x="-3.6546728971962623" width="36.54672897196263" height="41.86046511627907" as="geometry">
            <mxPoint x="61.22099198931903" y="8.372093023255815" as="sourcePoint" />
            <mxPoint x="72.6026875834446" as="targetPoint" />
          </mxGeometry>
        </mxCell>
        <mxCell id="2IMz6kc5Xn535oeAkMrh-527" value="" style="endArrow=none;html=1;" edge="1" parent="2IMz6kc5Xn535oeAkMrh-525">
          <mxGeometry x="-3.6546728971962623" width="36.54672897196263" height="41.86046511627907" as="geometry">
            <mxPoint x="61.22099198931911" y="8.372093023255815" as="sourcePoint" />
            <mxPoint x="72.6026875834446" y="16.74418604651163" as="targetPoint" />
          </mxGeometry>
        </mxCell>
        <mxCell id="2IMz6kc5Xn535oeAkMrh-528" value="" style="endArrow=none;html=1;" edge="1" parent="2IMz6kc5Xn535oeAkMrh-525">
          <mxGeometry width="36.54672897196263" height="41.86046511627907" as="geometry">
            <mxPoint y="8.372093023255815" as="sourcePoint" />
            <mxPoint x="73.09345794392526" y="8.372093023255815" as="targetPoint" />
          </mxGeometry>
        </mxCell>
        <mxCell id="2IMz6kc5Xn535oeAkMrh-529" value="" style="group;rotation=-180;" vertex="1" connectable="0" parent="2IMz6kc5Xn535oeAkMrh-334">
          <mxGeometry x="417.8878504672897" y="33.48837209302326" width="64.97196261682242" height="16.74418604651163" as="geometry" />
        </mxCell>
        <mxCell id="2IMz6kc5Xn535oeAkMrh-530" value="" style="endArrow=none;html=1;" edge="1" parent="2IMz6kc5Xn535oeAkMrh-529">
          <mxGeometry x="28.08077753275695" y="-25.116279069767444" width="32.48598130841122" height="41.86046511627907" as="geometry">
            <mxPoint x="3.1420444071079374" y="8.372093023255815" as="sourcePoint" />
            <mxPoint x="-6.702192353016673" y="16.74418604651163" as="targetPoint" />
          </mxGeometry>
        </mxCell>
        <mxCell id="2IMz6kc5Xn535oeAkMrh-531" value="" style="endArrow=none;html=1;" edge="1" parent="2IMz6kc5Xn535oeAkMrh-529">
          <mxGeometry x="28.08077753275695" y="-25.116279069767444" width="32.48598130841122" height="41.86046511627907" as="geometry">
            <mxPoint x="3.1420444071079374" y="8.372093023255815" as="sourcePoint" />
            <mxPoint x="-6.702192353016673" as="targetPoint" />
          </mxGeometry>
        </mxCell>
        <mxCell id="2IMz6kc5Xn535oeAkMrh-532" value="" style="endArrow=none;html=1;" edge="1" parent="2IMz6kc5Xn535oeAkMrh-529">
          <mxGeometry x="25.455647730057056" y="-25.116279069767444" width="32.48598130841122" height="41.86046511627907" as="geometry">
            <mxPoint x="57.613487813130774" y="8.372093023255815" as="sourcePoint" />
            <mxPoint x="-7.358474803691647" y="8.372093023255815" as="targetPoint" />
          </mxGeometry>
        </mxCell>
        <mxCell id="2IMz6kc5Xn535oeAkMrh-533" value="" style="endArrow=none;html=1;" edge="1" parent="2IMz6kc5Xn535oeAkMrh-334">
          <mxGeometry width="50" height="50" relative="1" as="geometry">
            <mxPoint x="468.0934579439252" y="41.86046511627907" as="sourcePoint" />
            <mxPoint x="553.7383177570093" y="41.86046511627907" as="targetPoint" />
          </mxGeometry>
        </mxCell>
        <mxCell id="2IMz6kc5Xn535oeAkMrh-534" value="" style="endArrow=none;html=1;" edge="1" parent="2IMz6kc5Xn535oeAkMrh-334">
          <mxGeometry width="50" height="50" relative="1" as="geometry">
            <mxPoint x="686.6355140186917" y="16.74418604651163" as="sourcePoint" />
            <mxPoint x="738.3177570093458" y="100.46511627906978" as="targetPoint" />
            <Array as="points">
              <mxPoint x="738.3177570093458" y="16.74418604651163" />
            </Array>
          </mxGeometry>
        </mxCell>
        <mxCell id="2IMz6kc5Xn535oeAkMrh-535" value="" style="group;rotation=90;" vertex="1" connectable="0" parent="2IMz6kc5Xn535oeAkMrh-334">
          <mxGeometry x="705.8317757009346" y="110.51162790697676" width="64.97196261682242" height="16.74418604651163" as="geometry" />
        </mxCell>
        <mxCell id="2IMz6kc5Xn535oeAkMrh-536" value="" style="endArrow=none;html=1;" edge="1" parent="2IMz6kc5Xn535oeAkMrh-535">
          <mxGeometry x="5.168224299065421" y="-25.953488372093023" width="32.48598130841122" height="41.86046511627907" as="geometry">
            <mxPoint x="32.48598130841121" y="41.86046511627907" as="sourcePoint" />
            <mxPoint x="39.86915887850468" y="52.74418604651163" as="targetPoint" />
          </mxGeometry>
        </mxCell>
        <mxCell id="2IMz6kc5Xn535oeAkMrh-537" value="" style="endArrow=none;html=1;" edge="1" parent="2IMz6kc5Xn535oeAkMrh-535">
          <mxGeometry x="5.168224299065421" y="-25.953488372093023" width="32.48598130841122" height="41.86046511627907" as="geometry">
            <mxPoint x="32.48598130841121" y="41.86046511627907" as="sourcePoint" />
            <mxPoint x="25.102803738317757" y="52.74418604651163" as="targetPoint" />
          </mxGeometry>
        </mxCell>
        <mxCell id="2IMz6kc5Xn535oeAkMrh-538" value="" style="endArrow=none;html=1;" edge="1" parent="2IMz6kc5Xn535oeAkMrh-535">
          <mxGeometry x="5.168224299065421" y="-22.6046511627907" width="32.48598130841122" height="41.86046511627907" as="geometry">
            <mxPoint x="32.48598130841121" y="-20.093023255813954" as="sourcePoint" />
            <mxPoint x="32.48598130841121" y="53.58139534883721" as="targetPoint" />
          </mxGeometry>
        </mxCell>
        <mxCell id="2IMz6kc5Xn535oeAkMrh-539" value="" style="endArrow=none;html=1;" edge="1" parent="2IMz6kc5Xn535oeAkMrh-334">
          <mxGeometry width="50" height="50" relative="1" as="geometry">
            <mxPoint x="205.99065420560746" y="226.046511627907" as="sourcePoint" />
            <mxPoint x="213.37383177570092" y="226.046511627907" as="targetPoint" />
          </mxGeometry>
        </mxCell>
        <mxCell id="2IMz6kc5Xn535oeAkMrh-540" value="" style="endArrow=none;html=1;" edge="1" parent="2IMz6kc5Xn535oeAkMrh-334">
          <mxGeometry width="50" height="50" relative="1" as="geometry">
            <mxPoint x="18.457943925233643" y="143.16279069767444" as="sourcePoint" />
            <mxPoint x="25.8411214953271" y="143.16279069767444" as="targetPoint" />
          </mxGeometry>
        </mxCell>
        <mxCell id="2IMz6kc5Xn535oeAkMrh-541" value="" style="endArrow=none;html=1;" edge="1" parent="2IMz6kc5Xn535oeAkMrh-334">
          <mxGeometry width="50" height="50" relative="1" as="geometry">
            <mxPoint x="550.0467289719626" y="426.13953488372096" as="sourcePoint" />
            <mxPoint x="557.4299065420561" y="426.13953488372096" as="targetPoint" />
          </mxGeometry>
        </mxCell>
        <mxCell id="2IMz6kc5Xn535oeAkMrh-542" value="" style="endArrow=none;html=1;" edge="1" parent="2IMz6kc5Xn535oeAkMrh-334">
          <mxGeometry width="50" height="50" relative="1" as="geometry">
            <mxPoint x="553.7383177570093" y="46.04651162790698" as="sourcePoint" />
            <mxPoint x="553.7383177570093" y="37.674418604651166" as="targetPoint" />
          </mxGeometry>
        </mxCell>
        <mxCell id="2IMz6kc5Xn535oeAkMrh-543" value="" style="endArrow=none;html=1;" edge="1" parent="2IMz6kc5Xn535oeAkMrh-334">
          <mxGeometry width="50" height="50" relative="1" as="geometry">
            <mxPoint x="118.13084112149532" y="79.53488372093024" as="sourcePoint" />
            <mxPoint x="118.13084112149532" y="71.16279069767442" as="targetPoint" />
          </mxGeometry>
        </mxCell>
        <mxCell id="2IMz6kc5Xn535oeAkMrh-544" value="" style="endArrow=none;html=1;" edge="1" parent="2IMz6kc5Xn535oeAkMrh-334">
          <mxGeometry width="50" height="50" relative="1" as="geometry">
            <mxPoint x="686.6355140186917" y="20.930232558139537" as="sourcePoint" />
            <mxPoint x="686.6355140186917" y="12.558139534883722" as="targetPoint" />
          </mxGeometry>
        </mxCell>
      </root>
    </mxGraphModel>
  </diagram>
</mxfile>
